<?xml version="1.0" encoding="utf-8"?>
<!-- Generator: Adobe Illustrator 15.0.0, SVG Export Plug-In . SVG Version: 6.00 Build 0)  -->
<!DOCTYPE svg PUBLIC "-//W3C//DTD SVG 1.1//EN" "http://www.w3.org/Graphics/SVG/1.1/DTD/svg11.dtd">
<svg version="1.1" xmlns="http://www.w3.org/2000/svg" xmlns:xlink="http://www.w3.org/1999/xlink" x="0px" y="0px" width="17px"
	 height="17px" viewBox="0 0 17 17" enable-background="new 0 0 17 17" xml:space="preserve">
<g id="Layer_1">
	<image overflow="visible" width="17" height="17" xlink:href="Лупа.png" >
	</image>
</g>
<g id="Layer_2">
	<path fill="#000000" d="M16.958,15.527L11.75,10.32C12.533,9.247,13,7.93,13,6.5C13,2.91,10.09,0,6.5,0S0,2.91,0,6.5
		S2.91,13,6.5,13c1.438,0,2.763-0.473,3.839-1.263l5.205,5.204L16.958,15.527z M6.5,11C4.019,11,2,8.981,2,6.5S4.019,2,6.5,2
		S11,4.019,11,6.5S8.981,11,6.5,11z"/>
</g>
</svg>
